# xmcd CD database file
#
# Track frame offsets:
#	150
#	16584
#	31088
#	46288
#	61428
#	78792
#	90412
#	105653
#	119343
#	134631
#	144065
#	153071
#	173211
#	189867
#	202452
#	214311
#	227701
#
# Disc length: 3263 seconds
#
# Revision: 3
# Processed by: cddbd v1.5.2PL0 Copyright (c) Steve Scherf et al.
# Submitted via: CDex 1.51
#
DISCID=d80cbd11
DTITLE=Various Artist - The Music Of Nashville - Season 2 - Volume 1 (Deluxe Edition)
DYEAR=2013
DGENRE=Country
TTITLE0=Chris Carmack - What If I Was Willing
TTITLE1=Sam Palladio - Can't Get It Right
TTITLE2=Lennon and Maisy - A Life That's Good
TTITLE3=Connie Britton and Will Chase - Ball And Chain
TTITLE4=Clare Bowen and Charles Esten - This Town
TTITLE5=Hayden Panettiere - Trouble Is
TTITLE6=Charles Esten - Playin' Tricks
TTITLE7=Clare Bowen and Sam Palladio - Why Can't I Say Goodnight
TTITLE8=Aubrey Peeples - Tell Me
TTITLE9=Chaley Rose - Wayfaring Stranger (A Cappella)
TTITLE10=Lennon and Maisy - Share With You
TTITLE11=Jonathan Jackson - How You Learn To Live Alone
TTITLE12=Hayden Panettiere and Chris Carmack - Can't Say No To You
TTITLE13=Clare Bowen - Waitin'
TTITLE14=Sam Palladio and Jonathan Jackson - Be My Girl
TTITLE15=Clare Bowen and Chaley Rose - Come See About Me
TTITLE16=Charles Esten - A Life That's Good
EXTD=YEAR: 2013
EXTT0=
EXTT1=
EXTT2=
EXTT3=
EXTT4=
EXTT5=
EXTT6=
EXTT7=
EXTT8=
EXTT9=
EXTT10=
EXTT11=
EXTT12=
EXTT13=
EXTT14=
EXTT15=
EXTT16=
PLAYORDER=
